<svg width="189" height="49" viewBox="0 0 189 49" fill="none" xmlns="http://www.w3.org/2000/svg">
<g filter="url(#filter0_dd)">
<path d="M144.158 40.9009H137.817V12.3971H144.158V40.9009Z" fill="black"/>
<path d="M17.7624 18.2415C16.7821 18.228 15.8098 18.4216 14.9083 18.8097C14.0067 19.1979 13.1958 19.772 12.5278 20.495C11.1024 21.9809 10.3897 24.0364 10.3897 26.6366C10.3897 29.2369 11.1024 31.3419 12.5523 32.8525C13.2307 33.5842 14.0533 34.1648 14.9675 34.5572C15.8817 34.9495 16.8672 35.1449 17.8607 35.1308C19.7284 35.1308 21.2276 34.6108 22.358 33.5954C23.409 32.6719 24.1835 31.4712 24.5944 30.1284L30.1977 32.1839C29.4604 34.586 28.035 36.6662 25.9215 38.3997C23.808 40.1332 21.1293 41 17.8607 41C13.9286 41 10.6354 39.638 7.98126 36.8891C5.32709 34.1403 4 30.7228 4 26.6366C4 22.501 5.30251 19.0835 7.93211 16.3842C10.5617 13.6848 13.8057 12.3228 17.7132 12.3228C21.0555 12.3228 23.7834 13.1895 25.8969 14.9231C27.9007 16.5099 29.3406 18.7081 30.0011 21.1885L24.2749 23.2934C23.9312 21.9223 23.1964 20.6826 22.1614 19.7274C21.0826 18.7368 19.6326 18.2415 17.7624 18.2415Z" fill="black"/>
<path d="M40.7185 32.7782C41.4251 33.4986 42.2661 34.0711 43.1931 34.4625C44.1202 34.8539 45.1149 35.0566 46.1201 35.0589C47.1252 35.0612 48.1209 34.8631 49.0497 34.4759C49.9785 34.0887 50.8221 33.5202 51.5319 32.803C53.0064 31.2923 53.7437 29.2121 53.7437 26.5128C53.7437 23.863 53.0064 21.8076 51.5319 20.3217C50.0892 18.8933 48.1477 18.093 46.1252 18.093C44.1027 18.093 42.1612 18.8933 40.7185 20.3217C39.244 21.8076 38.5067 23.863 38.5067 26.5128C38.5067 29.1626 39.244 31.2676 40.7185 32.7782ZM46.1252 12.3228C50.2293 12.3228 53.6208 13.6601 56.275 16.3346C58.9291 19.0092 60.2808 22.4019 60.2808 26.5376C60.2808 30.6732 58.9537 34.066 56.275 36.7653C53.5962 39.4646 50.2293 40.8019 46.1252 40.8019C42.0702 40.8019 38.7033 39.4646 36.0246 36.7653C33.3458 34.066 32.0188 30.6485 32.0188 26.5376C32.0188 22.4267 33.3458 19.0339 36.0246 16.3346C38.7033 13.6353 42.0456 12.3228 46.1252 12.3228Z" fill="black"/>
<path d="M76.8202 12.4961V19.0092C76.1288 18.9023 75.4308 18.8443 74.7313 18.8358C69.9145 18.8358 67.5306 21.2132 67.5306 26.488V40.8019H61.141V12.3971H67.3586V16.9537C67.9699 15.5195 69.032 14.3274 70.3814 13.561C71.8207 12.7198 73.461 12.2916 75.1245 12.3228C75.6944 12.3179 76.263 12.376 76.8202 12.4961Z" fill="black"/>
<path d="M85.5446 23.6154H99.7739C99.7513 22.8139 99.5676 22.0254 99.2339 21.2975C98.9002 20.5696 98.4234 19.9175 97.8325 19.3807C96.6283 18.2415 94.8834 17.6719 92.6224 17.6719C90.5581 17.6719 88.8869 18.2663 87.6335 19.4549C86.3802 20.6436 85.6675 22.0403 85.5446 23.6154ZM100.536 30.5989L106.36 32.3077C105.525 34.7594 103.976 36.79 101.691 38.3997C99.4053 40.0094 96.6037 40.8019 93.2614 40.8019C89.1327 40.8019 85.6429 39.4894 82.7676 36.8891C79.8922 34.2888 78.4422 30.7971 78.4422 26.4137C78.4422 22.3029 79.8431 18.9101 82.6447 16.2851C85.3006 13.7035 88.8588 12.28 92.5487 12.3228C96.9969 12.3228 100.462 13.5858 102.969 16.087C105.476 18.5882 106.726 21.9809 106.726 26.2503C106.726 27.3895 106.677 28.0581 106.554 28.281H85.3701C85.3967 29.2392 85.6252 30.1808 86.0404 31.0432C86.4556 31.9057 87.0481 32.6693 87.7785 33.2834C89.3092 34.6038 91.2691 35.3091 93.2835 35.2646C96.9969 35.2794 99.4299 33.7193 100.536 30.5989Z" fill="black"/>
<path d="M114.569 40.9009H108.081V0H114.618V16.4683C115.306 15.3292 116.436 14.3634 118.009 13.5957C119.698 12.7926 121.549 12.3942 123.416 12.4317C127.471 12.4317 130.641 13.7443 132.927 16.3941C135.212 19.0438 136.343 22.4118 136.343 26.5227C136.343 30.7079 135.138 34.1254 132.755 36.8247C130.371 39.524 127.176 40.8365 123.195 40.8365C119.213 40.8365 116.338 39.425 114.569 36.5771V40.9009ZM127.52 32.803C128.921 31.2676 129.609 29.1874 129.609 26.5623C129.609 23.9373 128.921 21.8819 127.544 20.3712C126.168 18.8606 124.35 18.1177 122.089 18.1177C119.901 18.1177 118.107 18.8606 116.682 20.3712C115.257 21.8819 114.569 23.9373 114.569 26.5623C114.569 29.1874 115.281 31.218 116.682 32.7782C118.083 34.3384 119.901 35.1061 122.089 35.1061C124.325 35.1061 126.119 34.3384 127.52 32.803Z" fill="black"/>
<path d="M174.14 40.8762H146.173V35.2794L163.843 18.0434H145.878V12.3971H174.091V17.8304L156.2 35.215H174.14V40.8861V40.8762Z" fill="black"/>
<path d="M177.26 39.6905C176.836 39.2763 176.501 38.7798 176.276 38.2315C176.051 37.6832 175.94 37.0946 175.951 36.502C175.94 35.9058 176.05 35.3136 176.275 34.7614C176.501 34.2091 176.836 33.7084 177.26 33.2896C177.669 32.8562 178.164 32.5135 178.714 32.284C179.263 32.0544 179.855 31.943 180.451 31.9571C181.657 31.9583 182.813 32.4376 183.665 33.2896C184.518 34.1417 184.998 35.297 184.999 36.502C185.013 37.0972 184.901 37.6887 184.672 38.2381C184.442 38.7874 184.099 39.2823 183.665 39.6905C183.245 40.1132 182.744 40.4469 182.191 40.6718C181.639 40.8966 181.047 41.008 180.451 40.9993C179.858 41.01 179.269 40.8995 178.72 40.6744C178.172 40.4493 177.675 40.1145 177.26 39.6905V39.6905Z" fill="#BFBFBF"/>
</g>
<defs>
<filter id="filter0_dd" x="0" y="0" width="189" height="49" filterUnits="userSpaceOnUse" color-interpolation-filters="sRGB">
<feFlood flood-opacity="0" result="BackgroundImageFix"/>
<feColorMatrix in="SourceAlpha" type="matrix" values="0 0 0 0 0 0 0 0 0 0 0 0 0 0 0 0 0 0 127 0"/>
<feOffset dy="4"/>
<feGaussianBlur stdDeviation="2"/>
<feColorMatrix type="matrix" values="0 0 0 0 0 0 0 0 0 0 0 0 0 0 0 0 0 0 0.25 0"/>
<feBlend mode="normal" in2="BackgroundImageFix" result="effect1_dropShadow"/>
<feColorMatrix in="SourceAlpha" type="matrix" values="0 0 0 0 0 0 0 0 0 0 0 0 0 0 0 0 0 0 127 0"/>
<feOffset dy="4"/>
<feGaussianBlur stdDeviation="2"/>
<feColorMatrix type="matrix" values="0 0 0 0 0 0 0 0 0 0 0 0 0 0 0 0 0 0 0.25 0"/>
<feBlend mode="normal" in2="effect1_dropShadow" result="effect2_dropShadow"/>
<feBlend mode="normal" in="SourceGraphic" in2="effect2_dropShadow" result="shape"/>
</filter>
</defs>
</svg>
